<svg width="18" height="18" viewBox="0 0 18 18" fill="none" xmlns="http://www.w3.org/2000/svg">
<path d="M16.8047 15.862L12.2547 11.312C13.136 10.2233 13.6667 8.84 13.6667 7.33334C13.6667 3.84134 10.8253 1 7.33331 1C3.84131 1 1 3.84131 1 7.33331C1 10.8253 3.84134 13.6667 7.33334 13.6667C8.84 13.6667 10.2233 13.136 11.312 12.2547L15.862 16.8047C15.992 16.9347 16.1627 17 16.3333 17C16.504 17 16.6747 16.9347 16.8047 16.8047C17.0653 16.544 17.0653 16.1227 16.8047 15.862ZM7.33334 12.3333C4.576 12.3333 2.33334 10.0907 2.33334 7.33331C2.33334 4.57597 4.576 2.33331 7.33334 2.33331C10.0907 2.33331 12.3333 4.57597 12.3333 7.33331C12.3333 10.0907 10.0907 12.3333 7.33334 12.3333Z" fill="white" stroke="white" stroke-width="0.4"/>
</svg>
